<?xml version="1.0" encoding="UTF-8"?>
<svg width="379px" height="199px" viewBox="0 0 379 199" version="1.1" xmlns="http://www.w3.org/2000/svg" xmlns:xlink="http://www.w3.org/1999/xlink">
    <!-- Generator: Sketch 48.1 (47250) - http://www.bohemiancoding.com/sketch -->
    <title>scenarior</title>
    <desc>Created with Sketch.</desc>
    <defs></defs>
    <g id="Page-1" stroke="none" stroke-width="1" fill="none" fill-rule="evenodd">
        <g id="scenarior" transform="translate(-98.000000, -111.000000)">
            <path d="M300.47295,198.36544 C300.47295,198.36544 348.56322,191.92172 386.098,198.61285 C423.63258,205.305 470.55118,199.10891 470.55118,199.10891 L470.55118,306.42134 C470.55118,306.42134 423.0475,312.36933 383.16629,306.17314 C343.28585,299.97706 300.47244,305.67764 300.47244,305.67764 L300.47244,198.36499 L300.47295,198.36544 Z" id="Shape" stroke="#455583" stroke-linecap="round" stroke-linejoin="round"></path>
            <g id="Group" transform="translate(95.361710, 106.352956)" fill="#455583" font-family="Etelka-Bold, Etelka" font-size="85" font-weight="bold">
                <text id="Scenarior">
                    <tspan x="0.43" y="67">Scenarior</tspan>
                </text>
            </g>
            <path d="M99.21311,198.36544 C99.21311,198.36544 147.30338,191.92172 184.83816,198.61285 C222.37274,205.305 269.29134,199.10891 269.29134,199.10891 L269.29134,306.42134 C269.29134,306.42134 221.78766,312.36933 181.90645,306.17314 C142.02601,299.97706 99.2126,305.67764 99.2126,305.67764 L99.2126,198.36499 L99.21311,198.36544 Z" id="Shape" stroke="#455583" stroke-linecap="round" stroke-linejoin="round"></path>
            <polygon id="Shape" fill="#455583" fill-rule="nonzero" points="116.22088 215.43307 116.221016 234.93307 238.00515 234.93295 252.28346 224.69558 238.1891 215.59572 116.22047 215.4334"></polygon>
            <g id="Group" transform="translate(121.220470, 217.183070)" fill="#FFFFFF" font-family="Helvetica-Bold, Helvetica" font-size="13" font-weight="bold">
                <text id="Given">
                    <tspan x="0" y="13">Given</tspan>
                </text>
            </g>
            <polygon id="Shape" fill="#455583" fill-rule="nonzero" points="116.22088 242.53346 116.221016 262.03346 238.00515 262.03335 252.28346 251.79597 238.1891 242.69611 116.22047 242.5338"></polygon>
            <g id="Group" transform="translate(121.220470, 244.283460)" fill="#FFFFFF" font-family="Helvetica-Bold, Helvetica" font-size="13" font-weight="bold">
                <text id="When">
                    <tspan x="0" y="13">When</tspan>
                </text>
            </g>
            <polygon id="Shape" fill="#455583" fill-rule="nonzero" points="116.22088 269.63386 116.221016 289.13386 238.00515 289.13374 252.28346 278.89636 238.1891 269.7965 116.22047 269.63419"></polygon>
            <g id="Group" transform="translate(121.220470, 271.383860)" fill="#FFFFFF" font-family="Helvetica-Bold, Helvetica" font-size="13" font-weight="bold">
                <text id="Then">
                    <tspan x="0" y="13">Then</tspan>
                </text>
            </g>
            <rect id="path" x="340.15748" y="210.30708" width="87.874015" height="81.66142"></rect>
            <g id="Clipped"></g>
        </g>
    </g>
</svg>