<?xml version="1.0" encoding="UTF-8"?>
<svg width="290px" height="199px" viewBox="0 0 290 199" version="1.1" xmlns="http://www.w3.org/2000/svg" xmlns:xlink="http://www.w3.org/1999/xlink">
    <!-- Generator: Sketch 48.1 (47250) - http://www.bohemiancoding.com/sketch -->
    <title>scenarior</title>
    <desc>Created with Sketch.</desc>
    <defs>
        <path d="M74.8890511,0 L10.4832117,0 C4.7080292,0 0,4.74264706 0,10.5602941 L0,38.8264706 L0,75.4397059 C0,81.2573529 4.7080292,86 10.4832117,86 L74.9518248,86 C80.7270073,86 85.4350365,81.2573529 85.4350365,75.4397059 L85.4350365,49.1338235 L85.4350365,10.5602941 C85.3722628,4.74264706 80.6642336,0 74.8890511,0 Z" id="path-1"></path>
    </defs>
    <g id="Page-1" stroke="none" stroke-width="1" fill="none" fill-rule="evenodd">
        <g id="scenarior" transform="translate(-98.000000, -111.000000)">
            <path d="M262.427794,198.36544 C262.427794,198.36544 297.711803,191.92172 325.25121,198.61285 C352.79047,205.305 387.21482,199.10891 387.21482,199.10891 L387.21482,306.42134 C387.21482,306.42134 352.361194,312.36933 323.100203,306.17314 C293.839777,299.97706 262.42742,305.67764 262.42742,305.67764 L262.42742,198.36499 L262.427794,198.36544 Z" id="Shape" stroke="#455583" stroke-linecap="round" stroke-linejoin="round"></path>
            <g id="Group" transform="translate(95.361710, 106.352956)" fill="#455583" font-family="Etelka-Bold, Etelka" font-size="85" font-weight="bold">
                <text id="Scenari">
                    <tspan x="0.43" y="67">Scenari</tspan>
                </text>
            </g>
            <path d="M99.2129742,198.36544 C99.2129742,198.36544 134.496983,191.92172 162.03639,198.61285 C189.57565,205.305 224,199.10891 224,199.10891 L224,306.42134 C224,306.42134 189.146374,312.36933 159.885383,306.17314 C130.624957,299.97706 99.2126,305.67764 99.2126,305.67764 L99.2126,198.36499 L99.2129742,198.36544 Z" id="Shape" stroke="#455583" stroke-linecap="round" stroke-linejoin="round"></path>
            <polygon id="Shape" fill="#455583" fill-rule="nonzero" points="116.220753 215.43307 116.220847 234.93307 200.345495 234.93295 210.208502 224.69558 200.472562 215.59572 116.22047 215.4334"></polygon>
            <g id="Group" transform="translate(121.220470, 217.183070)" fill="#FFFFFF" font-family="Helvetica-Bold, Helvetica" font-size="13" font-weight="bold">
                <text id="Given">
                    <tspan x="0" y="13">Given</tspan>
                </text>
            </g>
            <polygon id="Shape" fill="#455583" fill-rule="nonzero" points="116.220753 242.53346 116.220847 262.03346 200.345495 262.03335 210.208502 251.79597 200.472562 242.69611 116.22047 242.5338"></polygon>
            <g id="Group" transform="translate(121.220470, 244.283460)" fill="#FFFFFF" font-family="Helvetica-Bold, Helvetica" font-size="13" font-weight="bold">
                <text id="When">
                    <tspan x="0" y="13">When</tspan>
                </text>
            </g>
            <polygon id="Shape" fill="#455583" fill-rule="nonzero" points="116.220753 269.63386 116.220847 289.13386 200.345495 289.13374 210.208502 278.89636 200.472562 269.7965 116.22047 269.63419"></polygon>
            <g id="Group" transform="translate(121.220470, 271.383860)" fill="#FFFFFF" font-family="Helvetica-Bold, Helvetica" font-size="13" font-weight="bold">
                <text id="Then">
                    <tspan x="0" y="13">Then</tspan>
                </text>
            </g>
            <rect id="path" x="340.15748" y="210.30708" width="87.874015" height="81.66142"></rect>
            <g id="Clipped"></g>
            <g id="clojure-dark-blue-icon" transform="translate(283.000000, 210.000000)">
                <path d="M74.5077149,0 L10.429831,0 C4.68405584,0 0,4.74264706 0,10.5602941 L0,38.8264706 L0,75.4397059 C0,81.2573529 4.68405584,86 10.429831,86 L74.570169,86 C80.3159442,86 85,81.2573529 85,75.4397059 L85,49.1338235 L85,10.5602941 C84.9375459,4.74264706 80.2534901,0 74.5077149,0 Z" id="Shape" fill="#637ABC" fill-rule="nonzero"></path>
                <g id="Clipped">
                    <mask id="mask-2" fill="white">
                        <use xlink:href="#path-1"></use>
                    </mask>
                    <g id="SVGID_2_"></g>
                    <polygon id="Shape" fill="#000000" fill-rule="nonzero" opacity="0.3" mask="url(#mask-2)" points="19.2087591 67.0926471 37.9781022 86 85.3722628 86 85.3722628 38.3205882 66.979562 19.8558824 18.329927 20.5514706 15.7562044 23.0176471 19.9620438 27.2544118"></polygon>
                </g>
                <g id="Group" transform="translate(9.000000, 9.000000)" fill="#FFFFFF" fill-rule="nonzero">
                    <path d="M19.8333333,18.0074074 C19.1407407,18.762963 18.4481481,19.3296296 17.9444444,20.0222222 C12.5925926,26.5703704 11.1444444,33.8740741 14.1666667,41.7444444 C17.2518519,49.6148148 23.2333333,54.0851852 31.6703704,55.2185185 C35.5740741,55.7222222 39.2888889,55.0296296 42.8777778,53.4555556 C43.1925926,53.3296296 43.6333333,53.2037037 43.9481481,53.3296296 C49.362963,54.9666667 54.8407407,54.9037037 60.3185185,53.6444444 C60.6333333,53.5814815 60.8851852,53.5185185 61.3888889,53.4555556 C61.2,53.7703704 61.0740741,53.9592593 60.9481481,54.1481481 C55.1555556,61.6407407 47.662963,66.1740741 38.2185185,67.3074074 C22.037037,69.2592593 7.24074074,59.8777778 2.07777778,44.4518519 C0.566666667,40.0444444 8.8817842e-16,35.4481481 0.566666667,30.7888889 C0.944444444,27.7666667 2.51851852,25.1222222 4.53333333,22.7925926 C8.37407407,18.4481481 13.2851852,16.937037 19.0148148,17.7555556 C19.2666667,17.8185185 19.4555556,17.8814815 19.8333333,18.0074074 Z" id="Shape"></path>
                    <path d="M49.3,49.237037 C50.4962963,47.4111111 51.8814815,45.7740741 52.8888889,43.8851852 C59.7518519,30.7259259 51.4407407,14.8592593 36.7074074,12.8444444 C33.0555556,12.3407407 29.5296296,12.8444444 26.0666667,14.1666667 C25.7518519,14.2925926 25.1851852,14.2925926 24.9333333,14.1666667 C19.2666667,11.0814815 13.537037,10.9555556 7.74444444,13.8518519 C7.49259259,13.9777778 7.3037037,14.1037037 7.05185185,14.1666667 C7.05185185,14.1666667 6.98888889,14.1666667 6.92592593,14.1037037 C8.94074074,11.3333333 11.3333333,8.94074074 14.1037037,6.92592593 C19.0777778,3.27407407 24.6185185,1.1962963 30.662963,0.566666667 C47.7888889,-1.13333333 63.4666667,10.5777778 66.8037037,27.3888889 C67.4962963,30.8518519 67.8111111,34.3148148 67.1814815,37.7777778 C66.1740741,43.3185185 63.0259259,47.0333333 57.5481481,48.6074074 C54.9037037,49.4259259 52.0703704,49.5518519 49.3,49.237037 Z" id="Shape"></path>
                    <path d="M28.5851852,17 C30.1592593,16.7481481 31.7333333,16.3703704 33.2444444,16.3074074 C42.3740741,15.9925926 50.1185185,22.2888889 51.5037037,31.2925926 C52.5111111,37.9666667 50.2444444,43.5703704 45.0185185,47.9148148 C44.7666667,48.1666667 44.2,48.2296296 43.8222222,48.1037037 C42.3740741,47.7259259 41.5555556,46.5925926 40.737037,45.4592593 C38.8481481,42.6888889 37.5259259,39.5407407 36.4555556,36.3925926 C35.4481481,33.3703704 34.5666667,30.2851852 33.6222222,27.2 C32.5518519,23.8 31.1666667,20.5888889 28.9,17.7555556 C28.837037,17.6296296 28.7740741,17.5666667 28.7111111,17.4407407 C28.6481481,17.3777778 28.6481481,17.3148148 28.5851852,17 Z" id="Shape"></path>
                    <path d="M23.3592593,48.3555556 C22.3518519,47.3481481 21.3444444,46.4666667 20.4,45.4592593 C13.9148148,37.9666667 15.1111111,26.0666667 23.0444444,20.0222222 C23.6111111,19.5814815 23.9888889,19.5814815 24.5555556,19.9592593 C26.1296296,21.0296296 27.4518519,22.4148148 28.2703704,24.1777778 C29.3407407,26.3814815 30.3481481,28.5851852 31.2925926,30.8518519 C31.4185185,31.1666667 31.3555556,31.7333333 31.1666667,32.1111111 C29.4037037,35.637037 27.5777778,39.1 25.8777778,42.6259259 C24.9333333,44.3888889 24.2407407,46.2777778 23.3592593,48.3555556 Z" id="Shape"></path>
                    <path d="M32.5518519,34.8185185 C34.4407407,40.4222222 35.3222222,46.3407407 39.5407407,51 C37.9666667,51.2518519 36.6444444,51.5666667 35.2592593,51.7555556 C32.9925926,51.9444444 30.7259259,51.6296296 28.5851852,51 C28.0185185,50.8111111 27.8296296,50.5592593 27.8296296,49.9925926 C27.7037037,47.8518519 28.0814815,45.7740741 28.837037,43.7592593 C29.9074074,40.9259259 31.1037037,38.1555556 32.3,35.3222222 C32.362963,35.1962963 32.4259259,35.0703704 32.5518519,34.8185185 Z" id="Shape"></path>
                </g>
            </g>
        </g>
    </g>
</svg>